<svg version="1.1" viewBox="0.0 0.0 96.0 96.0" fill="none" stroke="none" stroke-linecap="square" stroke-miterlimit="10" xmlns:xlink="http://www.w3.org/1999/xlink" xmlns="http://www.w3.org/2000/svg"><clipPath id="p.0"><path d="m0 0l96.0 0l0 96.0l-96.0 0l0 -96.0z" clip-rule="nonzero"/></clipPath><g clip-path="url(#p.0)"><path fill="#000000" fill-opacity="0.0" d="m0 0l96.0 0l0 96.0l-96.0 0z" fill-rule="evenodd"/><path fill="#6d9eeb" d="m47.356956 93.6063l0 0c-25.187664 0 -45.6063 -20.41864 -45.6063 -45.6063q0 -22.80315 0 -45.6063q22.80315 0 45.6063 0l0 0c25.18766 0 45.6063 20.418634 45.6063 45.6063l0 0c0 25.18766 -20.41864 45.6063 -45.6063 45.6063z" fill-rule="evenodd"/><path stroke="#000000" stroke-width="3.0" stroke-linejoin="round" stroke-linecap="butt" d="m47.356956 93.6063l0 0c-25.187664 0 -45.6063 -20.41864 -45.6063 -45.6063q0 -22.80315 0 -45.6063q22.80315 0 45.6063 0l0 0c25.18766 0 45.6063 20.418634 45.6063 45.6063l0 0c0 25.18766 -20.41864 45.6063 -45.6063 45.6063z" fill-rule="evenodd"/><path fill="#000000" fill-opacity="0.0" d="m-4.200548 0l48.0 0l0 48.0l-48.0 0z" fill-rule="evenodd"/><path fill="#000000" d="m21.736952 9.392498q7.453125 0 11.406252 4.140625q3.953125 4.125 3.953125 11.703125q0 7.59375 -3.953125 11.71875q-3.953127 4.125 -11.406252 4.125l-13.4375 0l0 -31.6875l13.4375 0zm-0.8125 25.453125q4.03125 0 5.875 -2.421875q1.859375 -2.4375 1.859375 -7.1875q0 -4.75 -1.859375 -7.171875q-1.84375 -2.421875 -5.875 -2.421875l-4.359375 0l0 19.203125l4.359375 0z" fill-rule="nonzero"/><path fill="#000000" fill-opacity="0.0" d="m14.599817 18.800365l48.0 0l0 47.999996l-48.0 0z" fill-rule="evenodd"/><path fill="#434343" d="m40.209194 60.36474q-4.21875 0 -7.515625 -1.875q-3.281252 -1.875 -5.109377 -5.515625q-1.828125 -3.65625 -1.828125 -8.890625q0 -5.125 1.921875 -8.765625q1.921875 -3.65625 5.500002 -5.625q3.578125 -1.96875 8.421875 -1.96875q5.375 0 8.6875 1.953125q3.3125 1.9375 5.140625 6.15625l-7.640625 3.015625q-0.625 -2.4375 -2.203125 -3.546875q-1.578125 -1.109375 -3.9375 -1.109375q-2.34375 0 -4.03125 1.140625q-1.671875 1.125 -2.546875 3.3125q-0.859375 2.171875 -0.859375 5.390625q0 3.359375 0.890625 5.625q0.890625 2.25 2.640625 3.328125q1.75 1.078125 4.34375 1.078125q1.390625 0 2.53125 -0.328125q1.15625 -0.34375 2.015625 -0.984375q0.875 -0.65625 1.34375 -1.640625q0.484375 -0.984375 0.484375 -2.328125l0 -0.46875l-7.25 0l0 -5.53125l14.265625 0l0 17.09375l-5.625 0l-0.625 -7.4375l1.34375 1.15625q-1.0 3.25 -3.625 5.015625q-2.609375 1.75 -6.734375 1.75z" fill-rule="nonzero"/><path fill="#000000" fill-opacity="0.0" d="m33.40018 37.60073l48.000004 0l0 48.0l-48.000004 0z" fill-rule="evenodd"/><path fill="#666666" d="m61.02518 46.99323q5.656254 0 8.796879 2.671875q3.15625 2.65625 3.15625 7.078125q0 4.84375 -3.125 7.390621q-3.109375 2.546875 -8.781254 2.546875l-0.765625 0.4375l-6.296875 0l0 11.5625l-8.109375 0l0 -31.687496l15.125 0zm-1.15625 14.265625q2.40625 0 3.59375 -0.953125q1.2031288 -0.96875 1.2031288 -3.078125q0 -2.0625 -1.2031288 -3.015625q-1.1875 -0.96875 -3.59375 -0.96875l-5.859375 0l0 8.015625l5.859375 0zm4.843754 1.71875l10.140625 15.703121l-9.125 0l-8.109379 -13.875l7.093754 -1.8281212z" fill-rule="nonzero"/></g></svg>