<svg version="1.1" viewBox="0.0 0.0 288.0 96.0" fill="none" stroke="none" stroke-linecap="square" stroke-miterlimit="10" xmlns:xlink="http://www.w3.org/1999/xlink" xmlns="http://www.w3.org/2000/svg"><clipPath id="p.0"><path d="m0 0l288.0 0l0 96.0l-288.0 0l0 -96.0z" clip-rule="nonzero"/></clipPath><g clip-path="url(#p.0)"><path fill="#000000" fill-opacity="0.0" d="m0 0l288.0 0l0 96.0l-288.0 0z" fill-rule="evenodd"/><path fill="#18bc9c" d="m53.958004 94.20473l0 0c-25.187662 0 -45.606297 -20.41864 -45.606297 -45.6063q0 -22.803152 0 -45.6063q22.80315 0 45.606297 0l0 0c25.187664 0 45.606304 20.418634 45.606304 45.6063l0 0c0 25.18766 -20.41864 45.6063 -45.606304 45.6063z" fill-rule="evenodd"/><path stroke="#000000" stroke-width="3.0" stroke-linejoin="round" stroke-linecap="butt" d="m53.958004 94.20473l0 0c-25.187662 0 -45.606297 -20.41864 -45.606297 -45.6063q0 -22.803152 0 -45.6063q22.80315 0 45.606297 0l0 0c25.187664 0 45.606304 20.418634 45.606304 45.6063l0 0c0 25.18766 -20.41864 45.6063 -45.606304 45.6063z" fill-rule="evenodd"/><path fill="#000000" fill-opacity="0.0" d="m2.4005017 0.5984252l48.0 0l0 48.0l-48.0 0z" fill-rule="evenodd"/><path fill="#000000" d="m28.338001 9.990923q7.453125 0 11.40625 4.140625q3.953125 4.125 3.953125 11.703125q0 7.593752 -3.953125 11.718752q-3.953125 4.125 -11.40625 4.125l-13.437499 0l0 -31.687502l13.437499 0zm-0.8125 25.453127q4.03125 0 5.875 -2.421875q1.859375 -2.437502 1.859375 -7.187502q0 -4.75 -1.859375 -7.171875q-1.84375 -2.421875 -5.875 -2.421875l-4.359375 0l0 19.203127l4.359375 0z" fill-rule="nonzero"/><path fill="#000000" fill-opacity="0.0" d="m21.200867 19.39879l48.0 0l0 48.0l-48.0 0z" fill-rule="evenodd"/><path fill="#434343" d="m46.81024 60.963165q-4.21875 0 -7.515625 -1.875q-3.28125 -1.875 -5.109375 -5.515625q-1.828125 -3.65625 -1.828125 -8.890625q0 -5.125 1.921875 -8.765625q1.921875 -3.65625 5.5 -5.625002q3.578125 -1.96875 8.421875 -1.96875q5.375 0 8.6875 1.953125q3.3125 1.9375019 5.140625 6.156252l-7.640625 3.015625q-0.625 -2.4375 -2.203125 -3.546875q-1.578125 -1.109375 -3.9375 -1.109375q-2.34375 0 -4.03125 1.140625q-1.671875 1.125 -2.546875 3.3125q-0.859375 2.171875 -0.859375 5.390625q0 3.359375 0.890625 5.625q0.890625 2.25 2.640625 3.328125q1.75 1.078125 4.34375 1.078125q1.390625 0 2.53125 -0.328125q1.15625 -0.34375 2.015625 -0.984375q0.875 -0.65625 1.34375 -1.640625q0.484375 -0.984375 0.484375 -2.328125l0 -0.46875l-7.25 0l0 -5.53125l14.265625 0l0 17.09375l-5.625 0l-0.625 -7.4375l1.34375 1.15625q-1.0 3.25 -3.625 5.015625q-2.609375 1.75 -6.734375 1.75z" fill-rule="nonzero"/><path fill="#000000" fill-opacity="0.0" d="m40.001232 38.199158l48.000004 0l0 48.0l-48.000004 0z" fill-rule="evenodd"/><path fill="#666666" d="m67.626236 47.591656q5.65625 0 8.796875 2.671875q3.15625 2.65625 3.15625 7.078125q0 4.84375 -3.125 7.390621q-3.109375 2.546875 -8.78125 2.546875l-0.765625 0.4375l-6.296879 0l0 11.5625l-8.109375 0l0 -31.687496l15.125004 0zm-1.15625 14.265625q2.40625 0 3.59375 -0.953125q1.203125 -0.96875 1.203125 -3.078125q0 -2.0625 -1.203125 -3.015625q-1.1875 -0.96875 -3.59375 -0.96875l-5.859379 0l0 8.015625l5.859379 0zm4.84375 1.71875l10.140625 15.703121l-9.125 0l-8.109375 -13.875l7.09375 -1.8281212z" fill-rule="nonzero"/><path fill="#000000" fill-opacity="0.0" d="m110.22835 1.7952756l119.02362 0l0 45.606297l-119.02362 0z" fill-rule="evenodd"/><path fill="#000000" d="m130.52522 15.193423q4.953125 0 7.59375 2.765624q2.640625 2.75 2.640625 7.796875q0 5.0625 -2.640625 7.812502q-2.640625 2.75 -7.59375 2.75l-8.953125 0l0 -21.125l8.953125 0zm-0.546875 16.96875q2.6875 0 3.921875 -1.6093769q1.234375 -1.625 1.234375 -4.796875q0 -3.171875 -1.234375 -4.78125q-1.234375 -1.609375 -3.921875 -1.609375l-2.90625 0l0 12.796877l2.90625 0z" fill-rule="nonzero"/><path fill="#000000" d="m142.31377 36.318424l6.1875 -17.593752l5.484375 0l6.15625 17.593752l-4.71875 0l-3.4375 -11.296877l-0.765625 -2.78125l-0.0625 0l-0.71875 2.75l-3.515625 11.328127l-4.609375 0zm4.015625 -3.96875l0 -3.125002l9.796875 0l0 3.125002l-9.796875 0zm28.44226 -13.625002l0 3.546875l-5.71875 0l0 14.046877l-4.59375 0l0 -14.046877l-5.75 0l0 -3.546875l16.0625 0zm-1.4318695 17.593752l6.1875 -17.593752l5.484375 0l6.15625 17.593752l-4.71875 0l-3.4375 -11.296877l-0.765625 -2.78125l-0.0625 0l-0.71875 2.75l-3.515625 11.328127l-4.609375 0zm4.015625 -3.96875l0 -3.125002l9.796875 0l0 3.125002l-9.796875 0z" fill-rule="nonzero"/><path fill="#000000" fill-opacity="0.0" d="m126.22835 25.795275l119.02362 0l0 45.6063l-119.02362 0z" fill-rule="evenodd"/><path fill="#000000" d="m146.30647 60.630924q-2.828125 0 -5.015625 -1.234375q-2.1875 -1.25 -3.40625 -3.6875q-1.21875 -2.4375 -1.21875 -5.921875q0 -3.421875 1.28125 -5.84375q1.28125 -2.4375 3.65625 -3.75q2.390625 -1.3125 5.625 -1.3125q3.578125 0 5.78125 1.296875q2.21875 1.296875 3.4375 4.109375l-5.09375 2.015625q-0.40625 -1.625 -1.46875 -2.359375q-1.0625 -0.75 -2.625 -0.75q-1.5625 0 -2.6875 0.765625q-1.125 0.75 -1.703125 2.203125q-0.5625 1.453125 -0.5625 3.59375q0 2.25 0.578125 3.75q0.59375 1.5 1.765625 2.21875q1.171875 0.71875 2.890625 0.71875q0.9375 0 1.703125 -0.21875q0.765625 -0.21875 1.34375 -0.65625q0.578125 -0.4375 0.890625 -1.09375q0.328125 -0.65625 0.328125 -1.546875l0 -0.328125l-4.828125 0l0 -3.671875l9.5 0l0 11.390625l-3.75 0l-0.40625 -4.953125l0.890625 0.765625q-0.671875 2.171875 -2.421875 3.34375q-1.734375 1.15625 -4.484375 1.15625z" fill-rule="nonzero"/><path fill="#000000" d="m168.20815 42.45905q2.65625 0 4.578125 1.078125q1.9375 1.078125 2.984375 3.109375q1.046875 2.015625 1.046875 4.875q0 2.859375 -1.046875 4.890625q-1.046875 2.015625 -2.984375 3.09375q-1.921875 1.078125 -4.578125 1.078125q-2.671875 0 -4.625 -1.078125q-1.9375 -1.078125 -2.984375 -3.09375q-1.03125 -2.03125 -1.03125 -4.890625q0 -2.859375 1.03125 -4.875q1.046875 -2.03125 2.984375 -3.109375q1.953125 -1.078125 4.625 -1.078125zm0 3.59375q-1.28125 0 -2.171875 0.625q-0.875 0.609375 -1.328125 1.828125q-0.453125 1.203125 -0.453125 3.015625q0 1.78125 0.453125 3.015625q0.453125 1.21875 1.328125 1.84375q0.890625 0.609375 2.171875 0.609375q1.265625 0 2.125 -0.609375q0.875 -0.625 1.328125 -1.84375q0.453125 -1.234375 0.453125 -3.015625q0 -1.8125 -0.453125 -3.015625q-0.453125 -1.21875 -1.328125 -1.828125q-0.859375 -0.625 -2.125 -0.625z" fill-rule="nonzero"/><path fill="#000000" fill-opacity="0.0" d="m142.22835 49.795277l143.37007 0l0 45.606297l-143.37007 0z" fill-rule="evenodd"/><path fill="#000000" d="m163.65022 63.193424q3.765625 0 5.859375 1.7812462q2.109375 1.78125 2.109375 4.71875q0 3.234375 -2.09375 4.9375q-2.078125 1.6875 -5.84375 1.6875l-0.515625 0.28125l-4.1875 0l0 7.71875l-5.40625 0l0 -21.124996l10.078125 0zm-0.78125 9.515621q1.609375 0 2.40625 -0.640625q0.796875 -0.640625 0.796875 -2.046875q0 -1.390625 -0.796875 -2.015625q-0.796875 -0.640625 -2.40625 -0.640625l-3.890625 0l0 5.34375l3.890625 0zm3.234375 1.140625l6.75 10.46875l-6.078125 0l-5.40625 -9.25l4.734375 -1.21875z" fill-rule="nonzero"/><path fill="#000000" d="m183.12015 66.459045q2.65625 0 4.578125 1.078125q1.9375 1.078125 2.984375 3.109375q1.046875 2.015625 1.046875 4.875q0 2.859375 -1.046875 4.890625q-1.046875 2.015625 -2.984375 3.09375q-1.921875 1.078125 -4.578125 1.078125q-2.671875 0 -4.625 -1.078125q-1.9375 -1.078125 -2.984375 -3.09375q-1.03125 -2.03125 -1.03125 -4.890625q0 -2.859375 1.03125 -4.875q1.046875 -2.03125 2.984375 -3.109375q1.953125 -1.078125 4.625 -1.078125zm0 3.59375q-1.28125 0 -2.171875 0.625q-0.875 0.609375 -1.328125 1.828125q-0.453125 1.203125 -0.453125 3.015625q0 1.78125 0.453125 3.015625q0.453125 1.21875 1.328125 1.84375q0.890625 0.609375 2.171875 0.609375q1.265625 0 2.125 -0.609375q0.875 -0.625 1.328125 -1.84375q0.453125 -1.234375 0.453125 -3.015625q0 -1.8125 -0.453125 -3.015625q-0.453125 -1.21875 -1.328125 -1.828125q-0.859375 -0.625 -2.125 -0.625zm27.12996 -3.328125l0 10.421875q0 3.734375 -1.984375 5.59375q-1.984375 1.84375 -5.875 1.84375q-3.875 0 -5.875 -1.84375q-2.0 -1.859375 -2.0 -5.59375l0 -10.421875l4.609375 0l0 10.5q0 1.890625 0.8125 2.828125q0.828125 0.9375 2.453125 0.9375q1.640625 0 2.453125 -0.9375q0.8125 -0.9375 0.8125 -2.828125l0 -10.5l4.59375 0zm19.410248 0l0 17.59375l-5.09375 0l-5.46875 -9.515625l-1.328125 -2.609375l-0.03125 0l0.109375 3.25l0 8.875l-4.046875 0l0 -17.59375l5.078125 0l5.46875 9.515625l1.328125 2.609375l0.03125 0l-0.109375 -3.25l0 -8.875l4.0625 0zm11.345963 0q4.140625 0 6.328125 2.296875q2.203125 2.28125 2.203125 6.5q0 4.21875 -2.203125 6.515625q-2.1875 2.28125 -6.328125 2.28125l-7.453125 0l0 -17.59375l7.453125 0zm-0.453125 14.125q2.25 0 3.265625 -1.34375q1.03125 -1.34375 1.03125 -3.984375q0 -2.640625 -1.03125 -3.984375q-1.015625 -1.34375 -3.265625 -1.34375l-2.421875 0l0 10.65625l2.421875 0z" fill-rule="nonzero"/></g></svg>